<mxfile host="app.diagrams.net" modified="2024-04-16T05:20:36.996Z" agent="Mozilla/5.0 (Windows NT 10.0; WOW64) AppleWebKit/537.36 (KHTML, like Gecko) Chrome/102.0.0.0 Safari/537.36" etag="j8bNni6pgeINTOcTFv9g" version="24.2.5" type="device">
  <diagram name="Trang-1" id="RUsiBNN33RB9vd9O9orW">
    <mxGraphModel dx="2326" dy="841" grid="1" gridSize="10" guides="1" tooltips="1" connect="1" arrows="1" fold="1" page="1" pageScale="1" pageWidth="827" pageHeight="1169" math="0" shadow="0">
      <root>
        <mxCell id="0" />
        <mxCell id="1" parent="0" />
        <mxCell id="x2mUcBCEG7qjdO0pPI5w-41" value="" style="group" parent="1" vertex="1" connectable="0">
          <mxGeometry x="-320" y="492.5" width="390" height="280" as="geometry" />
        </mxCell>
        <mxCell id="x2mUcBCEG7qjdO0pPI5w-32" value="Sản phẩm" style="rounded=0;whiteSpace=wrap;html=1;" parent="x2mUcBCEG7qjdO0pPI5w-41" vertex="1">
          <mxGeometry x="200" y="60" width="120" height="60" as="geometry" />
        </mxCell>
        <mxCell id="x2mUcBCEG7qjdO0pPI5w-33" value="&lt;u&gt;Mã sản phẩm&lt;/u&gt;" style="ellipse;whiteSpace=wrap;html=1;" parent="x2mUcBCEG7qjdO0pPI5w-41" vertex="1">
          <mxGeometry x="40" width="120" height="80" as="geometry" />
        </mxCell>
        <mxCell id="x2mUcBCEG7qjdO0pPI5w-34" value="Tên sản phẩm" style="ellipse;whiteSpace=wrap;html=1;" parent="x2mUcBCEG7qjdO0pPI5w-41" vertex="1">
          <mxGeometry y="130" width="120" height="80" as="geometry" />
        </mxCell>
        <mxCell id="x2mUcBCEG7qjdO0pPI5w-35" value="Giá" style="ellipse;whiteSpace=wrap;html=1;" parent="x2mUcBCEG7qjdO0pPI5w-41" vertex="1">
          <mxGeometry x="140" y="200" width="120" height="80" as="geometry" />
        </mxCell>
        <mxCell id="x2mUcBCEG7qjdO0pPI5w-36" value="Số lượng tồn kho" style="ellipse;whiteSpace=wrap;html=1;" parent="x2mUcBCEG7qjdO0pPI5w-41" vertex="1">
          <mxGeometry x="260" y="170" width="120" height="80" as="geometry" />
        </mxCell>
        <mxCell id="x2mUcBCEG7qjdO0pPI5w-37" value="" style="endArrow=none;html=1;rounded=0;exitX=1;exitY=0.5;exitDx=0;exitDy=0;entryX=0.25;entryY=0;entryDx=0;entryDy=0;" parent="x2mUcBCEG7qjdO0pPI5w-41" source="x2mUcBCEG7qjdO0pPI5w-33" target="x2mUcBCEG7qjdO0pPI5w-32" edge="1">
          <mxGeometry width="50" height="50" relative="1" as="geometry">
            <mxPoint x="160" y="60" as="sourcePoint" />
            <mxPoint x="218" y="8" as="targetPoint" />
          </mxGeometry>
        </mxCell>
        <mxCell id="x2mUcBCEG7qjdO0pPI5w-38" value="" style="endArrow=none;html=1;rounded=0;exitX=1;exitY=0.5;exitDx=0;exitDy=0;entryX=0;entryY=0.5;entryDx=0;entryDy=0;" parent="x2mUcBCEG7qjdO0pPI5w-41" source="x2mUcBCEG7qjdO0pPI5w-34" target="x2mUcBCEG7qjdO0pPI5w-32" edge="1">
          <mxGeometry width="50" height="50" relative="1" as="geometry">
            <mxPoint x="170" y="70" as="sourcePoint" />
            <mxPoint x="228" y="18" as="targetPoint" />
          </mxGeometry>
        </mxCell>
        <mxCell id="x2mUcBCEG7qjdO0pPI5w-39" value="" style="endArrow=none;html=1;rounded=0;exitX=0.5;exitY=0;exitDx=0;exitDy=0;entryX=0.25;entryY=1;entryDx=0;entryDy=0;" parent="x2mUcBCEG7qjdO0pPI5w-41" source="x2mUcBCEG7qjdO0pPI5w-35" target="x2mUcBCEG7qjdO0pPI5w-32" edge="1">
          <mxGeometry width="50" height="50" relative="1" as="geometry">
            <mxPoint x="180" y="80" as="sourcePoint" />
            <mxPoint x="238" y="28" as="targetPoint" />
          </mxGeometry>
        </mxCell>
        <mxCell id="x2mUcBCEG7qjdO0pPI5w-40" value="" style="endArrow=none;html=1;rounded=0;exitX=0.75;exitY=1;exitDx=0;exitDy=0;entryX=0;entryY=0;entryDx=0;entryDy=0;" parent="x2mUcBCEG7qjdO0pPI5w-41" source="x2mUcBCEG7qjdO0pPI5w-32" target="x2mUcBCEG7qjdO0pPI5w-36" edge="1">
          <mxGeometry width="50" height="50" relative="1" as="geometry">
            <mxPoint x="190" y="90" as="sourcePoint" />
            <mxPoint x="248" y="38" as="targetPoint" />
          </mxGeometry>
        </mxCell>
        <mxCell id="x2mUcBCEG7qjdO0pPI5w-111" value="(0,n)" style="text;html=1;align=center;verticalAlign=middle;whiteSpace=wrap;rounded=0;" parent="x2mUcBCEG7qjdO0pPI5w-41" vertex="1">
          <mxGeometry x="330" y="50" width="60" height="30" as="geometry" />
        </mxCell>
        <mxCell id="x2mUcBCEG7qjdO0pPI5w-42" value="" style="group" parent="1" vertex="1" connectable="0">
          <mxGeometry x="-200" y="110" width="1070" height="410" as="geometry" />
        </mxCell>
        <mxCell id="x2mUcBCEG7qjdO0pPI5w-53" value="" style="group" parent="x2mUcBCEG7qjdO0pPI5w-42" vertex="1" connectable="0">
          <mxGeometry width="410" height="300" as="geometry" />
        </mxCell>
        <mxCell id="x2mUcBCEG7qjdO0pPI5w-1" value="Nhân viên" style="rounded=0;whiteSpace=wrap;html=1;" parent="x2mUcBCEG7qjdO0pPI5w-53" vertex="1">
          <mxGeometry x="290" y="120" width="120" height="60" as="geometry" />
        </mxCell>
        <mxCell id="x2mUcBCEG7qjdO0pPI5w-2" value="&lt;u&gt;Mã nhân viên&lt;/u&gt;" style="ellipse;whiteSpace=wrap;html=1;" parent="x2mUcBCEG7qjdO0pPI5w-53" vertex="1">
          <mxGeometry x="160" width="120" height="80" as="geometry" />
        </mxCell>
        <mxCell id="x2mUcBCEG7qjdO0pPI5w-4" value="Họ Tên&lt;span style=&quot;color: rgba(0, 0, 0, 0); font-family: monospace; font-size: 0px; text-align: start; white-space: nowrap;&quot;&gt;%3CmxGraphModel%3E%3Croot%3E%3CmxCell%20id%3D%220%22%2F%3E%3CmxCell%20id%3D%221%22%20parent%3D%220%22%2F%3E%3CmxCell%20id%3D%222%22%20value%3D%22M%C3%A3%20nh%C3%A2n%20vi%C3%AAn%22%20style%3D%22ellipse%3BwhiteSpace%3Dwrap%3Bhtml%3D1%3B%22%20vertex%3D%221%22%20parent%3D%221%22%3E%3CmxGeometry%20x%3D%2260%22%20y%3D%22160%22%20width%3D%22120%22%20height%3D%2280%22%20as%3D%22geometry%22%2F%3E%3C%2FmxCell%3E%3C%2Froot%3E%3C%2FmxGraphModel%3E&lt;/span&gt;" style="ellipse;whiteSpace=wrap;html=1;" parent="x2mUcBCEG7qjdO0pPI5w-53" vertex="1">
          <mxGeometry x="140" y="110" width="100" height="80" as="geometry" />
        </mxCell>
        <mxCell id="x2mUcBCEG7qjdO0pPI5w-5" value="Mã bưu điện" style="ellipse;whiteSpace=wrap;html=1;" parent="x2mUcBCEG7qjdO0pPI5w-53" vertex="1">
          <mxGeometry x="160" y="220" width="120" height="80" as="geometry" />
        </mxCell>
        <mxCell id="x2mUcBCEG7qjdO0pPI5w-6" value="Họ" style="ellipse;whiteSpace=wrap;html=1;" parent="x2mUcBCEG7qjdO0pPI5w-53" vertex="1">
          <mxGeometry y="40" width="120" height="80" as="geometry" />
        </mxCell>
        <mxCell id="x2mUcBCEG7qjdO0pPI5w-7" value="Tên" style="ellipse;whiteSpace=wrap;html=1;" parent="x2mUcBCEG7qjdO0pPI5w-53" vertex="1">
          <mxGeometry y="140" width="120" height="80" as="geometry" />
        </mxCell>
        <mxCell id="x2mUcBCEG7qjdO0pPI5w-23" value="" style="endArrow=none;html=1;rounded=0;exitX=1;exitY=0;exitDx=0;exitDy=0;entryX=0.25;entryY=1;entryDx=0;entryDy=0;" parent="x2mUcBCEG7qjdO0pPI5w-53" source="x2mUcBCEG7qjdO0pPI5w-5" target="x2mUcBCEG7qjdO0pPI5w-1" edge="1">
          <mxGeometry width="50" height="50" relative="1" as="geometry">
            <mxPoint x="520" y="240" as="sourcePoint" />
            <mxPoint x="570" y="190" as="targetPoint" />
          </mxGeometry>
        </mxCell>
        <mxCell id="x2mUcBCEG7qjdO0pPI5w-24" value="" style="endArrow=none;html=1;rounded=0;exitX=1;exitY=0.5;exitDx=0;exitDy=0;entryX=0;entryY=0.5;entryDx=0;entryDy=0;" parent="x2mUcBCEG7qjdO0pPI5w-53" source="x2mUcBCEG7qjdO0pPI5w-4" target="x2mUcBCEG7qjdO0pPI5w-1" edge="1">
          <mxGeometry width="50" height="50" relative="1" as="geometry">
            <mxPoint x="272" y="242" as="sourcePoint" />
            <mxPoint x="330" y="190" as="targetPoint" />
          </mxGeometry>
        </mxCell>
        <mxCell id="x2mUcBCEG7qjdO0pPI5w-25" value="" style="endArrow=none;html=1;rounded=0;exitX=1;exitY=0.5;exitDx=0;exitDy=0;entryX=0.25;entryY=0;entryDx=0;entryDy=0;" parent="x2mUcBCEG7qjdO0pPI5w-53" source="x2mUcBCEG7qjdO0pPI5w-2" target="x2mUcBCEG7qjdO0pPI5w-1" edge="1">
          <mxGeometry width="50" height="50" relative="1" as="geometry">
            <mxPoint x="282" y="252" as="sourcePoint" />
            <mxPoint x="340" y="200" as="targetPoint" />
          </mxGeometry>
        </mxCell>
        <mxCell id="x2mUcBCEG7qjdO0pPI5w-26" value="" style="endArrow=none;html=1;rounded=0;exitX=0;exitY=1;exitDx=0;exitDy=0;entryX=1;entryY=0.5;entryDx=0;entryDy=0;" parent="x2mUcBCEG7qjdO0pPI5w-53" source="x2mUcBCEG7qjdO0pPI5w-4" target="x2mUcBCEG7qjdO0pPI5w-7" edge="1">
          <mxGeometry width="50" height="50" relative="1" as="geometry">
            <mxPoint x="292" y="262" as="sourcePoint" />
            <mxPoint x="350" y="210" as="targetPoint" />
          </mxGeometry>
        </mxCell>
        <mxCell id="x2mUcBCEG7qjdO0pPI5w-27" value="" style="endArrow=none;html=1;rounded=0;exitX=0;exitY=0;exitDx=0;exitDy=0;entryX=1.007;entryY=0.658;entryDx=0;entryDy=0;entryPerimeter=0;" parent="x2mUcBCEG7qjdO0pPI5w-53" source="x2mUcBCEG7qjdO0pPI5w-4" target="x2mUcBCEG7qjdO0pPI5w-6" edge="1">
          <mxGeometry width="50" height="50" relative="1" as="geometry">
            <mxPoint x="302" y="272" as="sourcePoint" />
            <mxPoint x="360" y="220" as="targetPoint" />
          </mxGeometry>
        </mxCell>
        <mxCell id="x2mUcBCEG7qjdO0pPI5w-61" value="Xác thực" style="rhombus;whiteSpace=wrap;html=1;" parent="x2mUcBCEG7qjdO0pPI5w-42" vertex="1">
          <mxGeometry x="450" y="250" width="110" height="110" as="geometry" />
        </mxCell>
        <mxCell id="x2mUcBCEG7qjdO0pPI5w-44" value="" style="group" parent="x2mUcBCEG7qjdO0pPI5w-42" vertex="1" connectable="0">
          <mxGeometry x="640" y="-10" width="420" height="410" as="geometry" />
        </mxCell>
        <mxCell id="x2mUcBCEG7qjdO0pPI5w-13" value="Khách hàng&amp;nbsp;" style="rounded=0;whiteSpace=wrap;html=1;" parent="x2mUcBCEG7qjdO0pPI5w-44" vertex="1">
          <mxGeometry y="80" width="120" height="60" as="geometry" />
        </mxCell>
        <mxCell id="x2mUcBCEG7qjdO0pPI5w-43" value="" style="group" parent="x2mUcBCEG7qjdO0pPI5w-44" vertex="1" connectable="0">
          <mxGeometry x="130" y="-60" width="300" height="270" as="geometry" />
        </mxCell>
        <mxCell id="x2mUcBCEG7qjdO0pPI5w-15" value="&lt;u&gt;Mã khách hàng&lt;/u&gt;" style="ellipse;whiteSpace=wrap;html=1;" parent="x2mUcBCEG7qjdO0pPI5w-43" vertex="1">
          <mxGeometry width="120" height="80" as="geometry" />
        </mxCell>
        <mxCell id="x2mUcBCEG7qjdO0pPI5w-16" value="Họ tên&amp;nbsp;" style="ellipse;whiteSpace=wrap;html=1;" parent="x2mUcBCEG7qjdO0pPI5w-43" vertex="1">
          <mxGeometry x="50" y="90" width="120" height="80" as="geometry" />
        </mxCell>
        <mxCell id="x2mUcBCEG7qjdO0pPI5w-17" value="Mã bưu điện" style="ellipse;whiteSpace=wrap;html=1;" parent="x2mUcBCEG7qjdO0pPI5w-43" vertex="1">
          <mxGeometry x="20" y="190" width="120" height="80" as="geometry" />
        </mxCell>
        <mxCell id="x2mUcBCEG7qjdO0pPI5w-18" value="Họ" style="ellipse;whiteSpace=wrap;html=1;" parent="x2mUcBCEG7qjdO0pPI5w-43" vertex="1">
          <mxGeometry x="180" y="40" width="120" height="80" as="geometry" />
        </mxCell>
        <mxCell id="x2mUcBCEG7qjdO0pPI5w-19" value="Tên" style="ellipse;whiteSpace=wrap;html=1;" parent="x2mUcBCEG7qjdO0pPI5w-43" vertex="1">
          <mxGeometry x="180" y="140" width="120" height="80" as="geometry" />
        </mxCell>
        <mxCell id="x2mUcBCEG7qjdO0pPI5w-21" value="" style="endArrow=none;html=1;rounded=0;exitX=1;exitY=0;exitDx=0;exitDy=0;entryX=0;entryY=0.5;entryDx=0;entryDy=0;" parent="x2mUcBCEG7qjdO0pPI5w-43" source="x2mUcBCEG7qjdO0pPI5w-16" target="x2mUcBCEG7qjdO0pPI5w-18" edge="1">
          <mxGeometry width="50" height="50" relative="1" as="geometry">
            <mxPoint x="-30" y="220" as="sourcePoint" />
            <mxPoint x="20" y="170" as="targetPoint" />
          </mxGeometry>
        </mxCell>
        <mxCell id="x2mUcBCEG7qjdO0pPI5w-22" value="" style="endArrow=none;html=1;rounded=0;exitX=1;exitY=1;exitDx=0;exitDy=0;entryX=0;entryY=0.5;entryDx=0;entryDy=0;" parent="x2mUcBCEG7qjdO0pPI5w-43" source="x2mUcBCEG7qjdO0pPI5w-16" target="x2mUcBCEG7qjdO0pPI5w-19" edge="1">
          <mxGeometry width="50" height="50" relative="1" as="geometry">
            <mxPoint x="212" y="152" as="sourcePoint" />
            <mxPoint x="270" y="120" as="targetPoint" />
          </mxGeometry>
        </mxCell>
        <mxCell id="x2mUcBCEG7qjdO0pPI5w-30" value="" style="endArrow=none;html=1;rounded=0;exitX=0.75;exitY=0;exitDx=0;exitDy=0;entryX=0;entryY=0.5;entryDx=0;entryDy=0;" parent="x2mUcBCEG7qjdO0pPI5w-44" source="x2mUcBCEG7qjdO0pPI5w-13" target="x2mUcBCEG7qjdO0pPI5w-15" edge="1">
          <mxGeometry width="50" height="50" relative="1" as="geometry">
            <mxPoint x="-238" y="252" as="sourcePoint" />
            <mxPoint x="-180" y="200" as="targetPoint" />
          </mxGeometry>
        </mxCell>
        <mxCell id="x2mUcBCEG7qjdO0pPI5w-29" value="" style="endArrow=none;html=1;rounded=0;exitX=1;exitY=0.5;exitDx=0;exitDy=0;entryX=0;entryY=0.5;entryDx=0;entryDy=0;" parent="x2mUcBCEG7qjdO0pPI5w-44" source="x2mUcBCEG7qjdO0pPI5w-13" target="x2mUcBCEG7qjdO0pPI5w-16" edge="1">
          <mxGeometry width="50" height="50" relative="1" as="geometry">
            <mxPoint x="-248" y="242" as="sourcePoint" />
            <mxPoint x="-190" y="190" as="targetPoint" />
          </mxGeometry>
        </mxCell>
        <mxCell id="x2mUcBCEG7qjdO0pPI5w-28" value="" style="endArrow=none;html=1;rounded=0;exitX=0.75;exitY=1;exitDx=0;exitDy=0;entryX=0;entryY=0;entryDx=0;entryDy=0;" parent="x2mUcBCEG7qjdO0pPI5w-44" source="x2mUcBCEG7qjdO0pPI5w-13" target="x2mUcBCEG7qjdO0pPI5w-17" edge="1">
          <mxGeometry width="50" height="50" relative="1" as="geometry">
            <mxPoint x="-258" y="232" as="sourcePoint" />
            <mxPoint x="-200" y="180" as="targetPoint" />
          </mxGeometry>
        </mxCell>
        <mxCell id="x2mUcBCEG7qjdO0pPI5w-60" value="Mua hàng" style="rhombus;whiteSpace=wrap;html=1;" parent="x2mUcBCEG7qjdO0pPI5w-44" vertex="1">
          <mxGeometry x="-6" y="240" width="110" height="110" as="geometry" />
        </mxCell>
        <mxCell id="x2mUcBCEG7qjdO0pPI5w-69" value="" style="endArrow=none;html=1;rounded=0;entryX=0.421;entryY=0.972;entryDx=0;entryDy=0;entryPerimeter=0;exitX=0.5;exitY=0;exitDx=0;exitDy=0;" parent="x2mUcBCEG7qjdO0pPI5w-44" source="x2mUcBCEG7qjdO0pPI5w-60" target="x2mUcBCEG7qjdO0pPI5w-13" edge="1">
          <mxGeometry width="50" height="50" relative="1" as="geometry">
            <mxPoint x="170" y="360" as="sourcePoint" />
            <mxPoint x="220" y="310" as="targetPoint" />
          </mxGeometry>
        </mxCell>
        <mxCell id="x2mUcBCEG7qjdO0pPI5w-71" value="Phương thức thanh toán" style="ellipse;whiteSpace=wrap;html=1;" parent="x2mUcBCEG7qjdO0pPI5w-44" vertex="1">
          <mxGeometry x="170" y="255" width="120" height="80" as="geometry" />
        </mxCell>
        <mxCell id="x2mUcBCEG7qjdO0pPI5w-72" value="" style="endArrow=none;html=1;rounded=0;exitX=1;exitY=0.5;exitDx=0;exitDy=0;entryX=0;entryY=0.5;entryDx=0;entryDy=0;" parent="x2mUcBCEG7qjdO0pPI5w-44" source="x2mUcBCEG7qjdO0pPI5w-60" target="x2mUcBCEG7qjdO0pPI5w-71" edge="1">
          <mxGeometry width="50" height="50" relative="1" as="geometry">
            <mxPoint x="120" y="370" as="sourcePoint" />
            <mxPoint x="170" y="320" as="targetPoint" />
          </mxGeometry>
        </mxCell>
        <mxCell id="x2mUcBCEG7qjdO0pPI5w-110" value="(0,n)" style="text;html=1;align=center;verticalAlign=middle;whiteSpace=wrap;rounded=0;" parent="x2mUcBCEG7qjdO0pPI5w-44" vertex="1">
          <mxGeometry x="-6" y="150" width="60" height="30" as="geometry" />
        </mxCell>
        <mxCell id="x2mUcBCEG7qjdO0pPI5w-62" value="" style="endArrow=none;html=1;rounded=0;entryX=1;entryY=1;entryDx=0;entryDy=0;exitX=0;exitY=0;exitDx=0;exitDy=0;" parent="x2mUcBCEG7qjdO0pPI5w-42" source="x2mUcBCEG7qjdO0pPI5w-61" target="x2mUcBCEG7qjdO0pPI5w-1" edge="1">
          <mxGeometry width="50" height="50" relative="1" as="geometry">
            <mxPoint x="500" y="400" as="sourcePoint" />
            <mxPoint x="550" y="350" as="targetPoint" />
          </mxGeometry>
        </mxCell>
        <mxCell id="x2mUcBCEG7qjdO0pPI5w-65" value="Ngày xác thực" style="ellipse;whiteSpace=wrap;html=1;" parent="x2mUcBCEG7qjdO0pPI5w-42" vertex="1">
          <mxGeometry x="300" y="290" width="120" height="80" as="geometry" />
        </mxCell>
        <mxCell id="x2mUcBCEG7qjdO0pPI5w-66" value="" style="endArrow=none;html=1;rounded=0;entryX=0;entryY=1;entryDx=0;entryDy=0;exitX=1;exitY=0.5;exitDx=0;exitDy=0;" parent="x2mUcBCEG7qjdO0pPI5w-42" source="x2mUcBCEG7qjdO0pPI5w-65" target="x2mUcBCEG7qjdO0pPI5w-61" edge="1">
          <mxGeometry width="50" height="50" relative="1" as="geometry">
            <mxPoint x="390" y="460" as="sourcePoint" />
            <mxPoint x="440" y="410" as="targetPoint" />
          </mxGeometry>
        </mxCell>
        <mxCell id="x2mUcBCEG7qjdO0pPI5w-73" value="(0,n)" style="text;html=1;align=center;verticalAlign=middle;whiteSpace=wrap;rounded=0;" parent="x2mUcBCEG7qjdO0pPI5w-42" vertex="1">
          <mxGeometry x="410" y="170" width="60" height="30" as="geometry" />
        </mxCell>
        <mxCell id="x2mUcBCEG7qjdO0pPI5w-54" value="" style="group" parent="1" vertex="1" connectable="0">
          <mxGeometry x="420" y="520" width="290" height="185" as="geometry" />
        </mxCell>
        <mxCell id="x2mUcBCEG7qjdO0pPI5w-46" value="Đơn hàng" style="rounded=0;whiteSpace=wrap;html=1;" parent="x2mUcBCEG7qjdO0pPI5w-54" vertex="1">
          <mxGeometry y="45" width="120" height="60" as="geometry" />
        </mxCell>
        <mxCell id="x2mUcBCEG7qjdO0pPI5w-47" value="&lt;u&gt;Mã đơn hàng&lt;/u&gt;" style="ellipse;whiteSpace=wrap;html=1;" parent="x2mUcBCEG7qjdO0pPI5w-54" vertex="1">
          <mxGeometry x="170" width="120" height="80" as="geometry" />
        </mxCell>
        <mxCell id="x2mUcBCEG7qjdO0pPI5w-50" value="" style="endArrow=none;html=1;rounded=0;exitX=1;exitY=0.25;exitDx=0;exitDy=0;entryX=0;entryY=0.5;entryDx=0;entryDy=0;" parent="x2mUcBCEG7qjdO0pPI5w-54" source="x2mUcBCEG7qjdO0pPI5w-46" target="x2mUcBCEG7qjdO0pPI5w-47" edge="1">
          <mxGeometry width="50" height="50" relative="1" as="geometry">
            <mxPoint x="200" y="170" as="sourcePoint" />
            <mxPoint x="250" y="120" as="targetPoint" />
          </mxGeometry>
        </mxCell>
        <mxCell id="x2mUcBCEG7qjdO0pPI5w-51" value="Thời gian nhận đơn" style="ellipse;whiteSpace=wrap;html=1;" parent="x2mUcBCEG7qjdO0pPI5w-54" vertex="1">
          <mxGeometry x="170" y="105" width="120" height="80" as="geometry" />
        </mxCell>
        <mxCell id="x2mUcBCEG7qjdO0pPI5w-52" value="" style="endArrow=none;html=1;rounded=0;exitX=1;exitY=1;exitDx=0;exitDy=0;entryX=0;entryY=0.5;entryDx=0;entryDy=0;" parent="x2mUcBCEG7qjdO0pPI5w-54" source="x2mUcBCEG7qjdO0pPI5w-46" target="x2mUcBCEG7qjdO0pPI5w-51" edge="1">
          <mxGeometry width="50" height="50" relative="1" as="geometry">
            <mxPoint x="130" y="70" as="sourcePoint" />
            <mxPoint x="180" y="50" as="targetPoint" />
          </mxGeometry>
        </mxCell>
        <mxCell id="x2mUcBCEG7qjdO0pPI5w-109" value="(1,1)" style="text;html=1;align=center;verticalAlign=middle;whiteSpace=wrap;rounded=0;" parent="x2mUcBCEG7qjdO0pPI5w-54" vertex="1">
          <mxGeometry x="56" y="10" width="60" height="30" as="geometry" />
        </mxCell>
        <mxCell id="x2mUcBCEG7qjdO0pPI5w-55" value="Chi tiết đơn hàng" style="rhombus;whiteSpace=wrap;html=1;" parent="1" vertex="1">
          <mxGeometry x="200" y="560" width="110" height="110" as="geometry" />
        </mxCell>
        <mxCell id="x2mUcBCEG7qjdO0pPI5w-56" value="" style="endArrow=none;html=1;rounded=0;exitX=1;exitY=0.5;exitDx=0;exitDy=0;entryX=0;entryY=0.5;entryDx=0;entryDy=0;" parent="1" source="x2mUcBCEG7qjdO0pPI5w-32" target="x2mUcBCEG7qjdO0pPI5w-55" edge="1">
          <mxGeometry width="50" height="50" relative="1" as="geometry">
            <mxPoint x="140" y="610" as="sourcePoint" />
            <mxPoint x="190" y="560" as="targetPoint" />
          </mxGeometry>
        </mxCell>
        <mxCell id="x2mUcBCEG7qjdO0pPI5w-57" value="" style="endArrow=none;html=1;rounded=0;exitX=0;exitY=0.5;exitDx=0;exitDy=0;entryX=1;entryY=0.5;entryDx=0;entryDy=0;" parent="1" source="x2mUcBCEG7qjdO0pPI5w-46" target="x2mUcBCEG7qjdO0pPI5w-55" edge="1">
          <mxGeometry width="50" height="50" relative="1" as="geometry">
            <mxPoint x="80" y="610" as="sourcePoint" />
            <mxPoint x="210" y="625" as="targetPoint" />
          </mxGeometry>
        </mxCell>
        <mxCell id="x2mUcBCEG7qjdO0pPI5w-58" value="Số lượng" style="ellipse;whiteSpace=wrap;html=1;" parent="1" vertex="1">
          <mxGeometry x="130" y="690" width="120" height="80" as="geometry" />
        </mxCell>
        <mxCell id="x2mUcBCEG7qjdO0pPI5w-59" value="" style="endArrow=none;html=1;rounded=0;exitX=0.5;exitY=0;exitDx=0;exitDy=0;entryX=0.5;entryY=1;entryDx=0;entryDy=0;" parent="1" source="x2mUcBCEG7qjdO0pPI5w-58" target="x2mUcBCEG7qjdO0pPI5w-55" edge="1">
          <mxGeometry width="50" height="50" relative="1" as="geometry">
            <mxPoint x="90" y="620" as="sourcePoint" />
            <mxPoint x="220" y="635" as="targetPoint" />
          </mxGeometry>
        </mxCell>
        <mxCell id="x2mUcBCEG7qjdO0pPI5w-64" value="" style="endArrow=none;html=1;rounded=0;entryX=0;entryY=0;entryDx=0;entryDy=0;exitX=1;exitY=1;exitDx=0;exitDy=0;" parent="1" source="x2mUcBCEG7qjdO0pPI5w-61" target="x2mUcBCEG7qjdO0pPI5w-46" edge="1">
          <mxGeometry width="50" height="50" relative="1" as="geometry">
            <mxPoint x="350" y="610" as="sourcePoint" />
            <mxPoint x="400" y="560" as="targetPoint" />
          </mxGeometry>
        </mxCell>
        <mxCell id="x2mUcBCEG7qjdO0pPI5w-70" value="" style="endArrow=none;html=1;rounded=0;entryX=0.5;entryY=1;entryDx=0;entryDy=0;exitX=0.5;exitY=0;exitDx=0;exitDy=0;" parent="1" source="x2mUcBCEG7qjdO0pPI5w-46" target="x2mUcBCEG7qjdO0pPI5w-60" edge="1">
          <mxGeometry width="50" height="50" relative="1" as="geometry">
            <mxPoint x="480" y="572" as="sourcePoint" />
            <mxPoint x="482" y="470" as="targetPoint" />
          </mxGeometry>
        </mxCell>
        <mxCell id="x2mUcBCEG7qjdO0pPI5w-112" value="(1,n)" style="text;html=1;align=center;verticalAlign=middle;whiteSpace=wrap;rounded=0;" parent="1" vertex="1">
          <mxGeometry x="350" y="617.5" width="60" height="30" as="geometry" />
        </mxCell>
        <mxCell id="x2mUcBCEG7qjdO0pPI5w-113" value="(1,1)" style="text;html=1;align=center;verticalAlign=middle;whiteSpace=wrap;rounded=0;" parent="1" vertex="1">
          <mxGeometry x="350" y="530" width="60" height="30" as="geometry" />
        </mxCell>
        <mxCell id="NpuWxeAnctJdk6Q3joWi-7" value="Thông tin đơn&amp;nbsp;" style="ellipse;whiteSpace=wrap;html=1;" parent="1" vertex="1">
          <mxGeometry x="275" y="690" width="120" height="80" as="geometry" />
        </mxCell>
        <mxCell id="NpuWxeAnctJdk6Q3joWi-8" value="" style="endArrow=none;html=1;rounded=0;exitX=0.5;exitY=0;exitDx=0;exitDy=0;entryX=0.5;entryY=1;entryDx=0;entryDy=0;" parent="1" source="NpuWxeAnctJdk6Q3joWi-7" target="x2mUcBCEG7qjdO0pPI5w-55" edge="1">
          <mxGeometry width="50" height="50" relative="1" as="geometry">
            <mxPoint x="200" y="700" as="sourcePoint" />
            <mxPoint x="265" y="670" as="targetPoint" />
          </mxGeometry>
        </mxCell>
      </root>
    </mxGraphModel>
  </diagram>
</mxfile>
